<?xml version="1.0" encoding="UTF-8" standalone="no"?>
<svg
   viewBox="0 0 22 22"
   version="1.1"
   id="svg8"
   sodipodi:docname="user-red.svg"
   inkscape:version="1.1.2 (0a00cf5339, 2022-02-04)"
   xmlns:inkscape="http://www.inkscape.org/namespaces/inkscape"
   xmlns:sodipodi="http://sodipodi.sourceforge.net/DTD/sodipodi-0.dtd"
   xmlns="http://www.w3.org/2000/svg"
   xmlns:svg="http://www.w3.org/2000/svg">
  <sodipodi:namedview
     id="namedview10"
     pagecolor="#ffffff"
     bordercolor="#666666"
     borderopacity="1.0"
     inkscape:pageshadow="2"
     inkscape:pageopacity="0.0"
     inkscape:pagecheckerboard="0"
     showgrid="false"
     inkscape:zoom="41.397888"
     inkscape:cx="13.273624"
     inkscape:cy="7.9714212"
     inkscape:window-width="1880"
     inkscape:window-height="1051"
     inkscape:window-x="40"
     inkscape:window-y="0"
     inkscape:window-maximized="1"
     inkscape:current-layer="svg8" />
  <defs
     id="defs3051">
    <style
       type="text/css"
       id="current-color-scheme">
      .ColorScheme-Text {
        color:#eff0f1;
      }
      </style>
  </defs>
  <path
     style="fill:#dc3545;fill-opacity:1;stroke-width:0.0341615"
     d="m 6.0685784,14.976739 c 0,-2.620606 0.00723,-3.073644 0.051017,-3.197756 0.3460339,-0.980765 2.4491143,-1.708713 4.9365606,-1.708713 2.511059,0 4.643842,0.747593 4.93998,1.731586 0.07987,0.265392 0.1134,0.24978 -0.536446,0.24978 h -0.584044 l -0.150434,-0.132417 c -0.435071,-0.382966 -1.428935,-0.70195 -2.575888,-0.826742 -0.490064,-0.05332 -1.709415,-0.05264 -2.1863357,0.0012 -1.4737133,0.166427 -2.5192711,0.56413 -2.8165075,1.071326 l -0.087219,0.148828 v 2.379763 2.379762 h 2.9891302 2.98913 v 0.478261 0.478261 H 9.5530504 6.0685784 Z"
     id="path8391" />
  <path
     style="fill:#dc3545;fill-opacity:1;stroke-width:0.0341615"
     d="M 10.692547,8.9652887 C 9.9977415,8.8323349 9.5459565,8.5734181 9.0109089,8.0015469 8.7120742,7.6821452 8.5280192,7.3658948 8.3770806,6.9124782 8.2509835,6.533685 8.2180371,5.8717835 8.3055808,5.4760263 8.4387744,4.8739007 8.6653503,4.4414008 9.0688451,4.0190674 9.487837,3.5805136 9.9983327,3.2849237 10.567158,3.1515068 c 0.343778,-0.080633 1.168491,-0.051383 1.49726,0.053103 1.036526,0.329417 1.778319,1.1350339 2.037191,2.2124726 0.10103,0.4204911 0.07453,1.0961753 -0.05872,1.4972414 -0.146966,0.44235 -0.333779,0.7658839 -0.620337,1.0743355 -0.453539,0.488191 -0.889407,0.7663789 -1.443538,0.9213221 -0.333196,0.093166 -0.950036,0.1196851 -1.286468,0.055307 z"
     id="path9282" />
  <path
     style="fill:#dc3545;fill-opacity:1;stroke-width:0.0341615"
     d=""
     id="path9321" />
  <path
     style="fill:#dc3545;fill-opacity:1;stroke-width:0.0341615"
     d="m 6.0534538,14.920012 0.01021,-3.100155 0.1008509,-0.182063 c 0.2016431,-0.364019 0.664349,-0.704227 1.3079741,-0.961697 1.0063895,-0.402587 2.1091895,-0.583108 3.5658022,-0.583699 1.331782,-5.4e-4 2.420386,0.170351 3.402534,0.534136 0.760346,0.28163 1.321709,0.708576 1.474952,1.12178 0.04583,0.123564 0.06258,0.213993 0.04323,0.233342 -0.01738,0.01738 -0.268241,0.04023 -0.557477,0.05079 l -0.525884,0.01919 -0.165333,-0.143094 c -0.564145,-0.488264 -1.806416,-0.821594 -3.266214,-0.8764 -1.477601,-0.05547 -2.8861972,0.172804 -3.7236029,0.60345 -0.3189506,0.164025 -0.4940799,0.306696 -0.6197881,0.504917 l -0.097603,0.153904 v 2.384616 2.384616 h 2.9891305 2.9891305 v 0.478261 0.478261 H 9.5123046 6.0432437 Z"
     id="path9360" />
  <path
     style="fill:#dc3545;fill-opacity:1;stroke-width:0.0241558"
     d="m 6.0647416,14.910181 0.016918,-3.097984 0.09595,-0.165614 c 0.4428506,-0.764378 1.8000861,-1.311832 3.7625117,-1.517647 0.4589787,-0.04814 1.8704037,-0.04097 2.3372387,0.01187 1.609528,0.182174 2.807139,0.601906 3.395141,1.189908 0.164127,0.164127 0.309225,0.410999 0.343256,0.584022 0.01358,0.06906 0.0078,0.08127 -0.04844,0.102663 -0.03544,0.01347 -0.289996,0.02428 -0.571991,0.02428 H 14.88719 l -0.181295,-0.145844 c -0.411169,-0.330769 -1.138775,-0.594146 -2.060322,-0.745791 -0.486973,-0.08013 -0.787614,-0.09871 -1.597764,-0.09873 -0.823235,-2.2e-5 -1.0642992,0.01622 -1.6299928,0.109791 -1.2238861,0.202453 -2.0370997,0.567603 -2.305239,1.035101 l -0.070702,0.123268 -2.267e-4,2.37331 -2.267e-4,2.373309 2.9409713,3.29e-4 c 1.6175349,1.93e-4 2.9654289,0.0069 2.9953219,0.01489 0.05393,0.01445 0.05435,0.01809 0.05435,0.470709 v 0.456144 H 9.5399449 6.0478241 Z"
     id="path9807" />
  <path
     style="fill:#dc3545;fill-opacity:1;stroke-width:0.0241558"
     d="M 10.851331,8.971758 C 10.248086,8.9079933 9.6894386,8.6385893 9.2089025,8.1797081 8.8257514,7.8138235 8.579857,7.4421401 8.4238856,6.9931104 8.3095743,6.6640168 8.2854034,6.4926653 8.2858852,6.0147996 8.286287,5.6162085 8.2918106,5.5602341 8.3522042,5.3427342 8.4930084,4.8356457 8.6688034,4.4986529 8.9769246,4.1451673 9.3736196,3.6900672 9.8645388,3.3726048 10.447393,3.1942606 c 0.122483,-0.037478 0.251739,-0.050628 0.587749,-0.059797 0.821088,-0.022405 1.232927,0.083607 1.80543,0.464737 0.550053,0.3661852 0.94563,0.8948812 1.168653,1.5619269 0.118629,0.3548101 0.142492,0.5440506 0.125923,0.9986071 -0.01904,0.5224641 -0.08052,0.7739004 -0.292472,1.1962299 -0.143458,0.2858477 -0.273305,0.4576502 -0.566539,0.7495902 -0.556407,0.5539529 -1.085891,0.8083637 -1.806667,0.8680836 -0.318366,0.026378 -0.35176,0.026277 -0.618139,-0.00188 z"
     id="path9846" />
</svg>
