<?xml version="1.0" encoding="UTF-8" standalone="no"?>
<svg
   viewBox="0 0 32 32"
   version="1.1"
   id="svg5"
   sodipodi:docname="autocorrection.svg"
   inkscape:version="1.1.2 (0a00cf5339, 2022-02-04)"
   xmlns:inkscape="http://www.inkscape.org/namespaces/inkscape"
   xmlns:sodipodi="http://sodipodi.sourceforge.net/DTD/sodipodi-0.dtd"
   xmlns="http://www.w3.org/2000/svg"
   xmlns:svg="http://www.w3.org/2000/svg">
  <sodipodi:namedview
     id="namedview7"
     pagecolor="#ffffff"
     bordercolor="#666666"
     borderopacity="1.0"
     inkscape:pageshadow="2"
     inkscape:pageopacity="0.0"
     inkscape:pagecheckerboard="0"
     showgrid="false"
     inkscape:zoom="20.125"
     inkscape:cx="16"
     inkscape:cy="15.975155"
     inkscape:window-width="1920"
     inkscape:window-height="1051"
     inkscape:window-x="3840"
     inkscape:window-y="0"
     inkscape:window-maximized="1"
     inkscape:current-layer="svg5" />
  <defs
     id="defs3051">
    <style
       type="text/css"
       id="current-color-scheme">
      .ColorScheme-Text {
        color:#232629;
      }
      </style>
  </defs>
  <path
     style="fill:#4ba276;fill-opacity:1;stroke:none"
     d="M 23.779297 3.9804688 L 3.9804688 23.779297 L 8.2226562 28.023438 L 28.021484 8.2246094 L 23.779297 3.9804688 z M 6.25 4 L 5.453125 5.453125 L 4 6.25 L 5.453125 7.046875 L 6.25 8.5 L 7.046875 7.046875 L 8.5 6.25 L 7.046875 5.453125 L 6.25 4 z M 13.75 4 L 12.953125 5.453125 L 11.5 6.25 L 12.953125 7.046875 L 13.75 8.5 L 14.546875 7.046875 L 16 6.25 L 14.546875 5.453125 L 13.75 4 z M 23.777344 5.3945312 L 26.605469 8.2226562 L 20.947266 13.880859 L 18.119141 11.052734 L 23.777344 5.3945312 z M 9.25 10 L 8.453125 11.453125 L 7 12.25 L 8.453125 13.046875 L 9.25 14.5 L 10.046875 13.046875 L 11.5 12.25 L 10.046875 11.453125 L 9.25 10 z "
     id="path74"
     class="ColorScheme-Text" />
</svg>
