<?xml version="1.0" encoding="UTF-8" standalone="no"?>
<svg
   width="16"
   height="16"
   viewBox="0 0 16 16"
   version="1.1"
   id="svg7"
   sodipodi:docname="stock_exit.svg"
   inkscape:version="1.2.2 (b0a8486541, 2022-12-01)"
   xmlns:inkscape="http://www.inkscape.org/namespaces/inkscape"
   xmlns:sodipodi="http://sodipodi.sourceforge.net/DTD/sodipodi-0.dtd"
   xmlns="http://www.w3.org/2000/svg"
   xmlns:svg="http://www.w3.org/2000/svg">
  <sodipodi:namedview
     id="namedview9"
     pagecolor="#ffffff"
     bordercolor="#666666"
     borderopacity="1.0"
     inkscape:showpageshadow="2"
     inkscape:pageopacity="0.0"
     inkscape:pagecheckerboard="0"
     inkscape:deskcolor="#d1d1d1"
     showgrid="false"
     showguides="true"
     inkscape:zoom="46.4375"
     inkscape:cx="8"
     inkscape:cy="7.9892328"
     inkscape:window-width="1874"
     inkscape:window-height="1051"
     inkscape:window-x="46"
     inkscape:window-y="0"
     inkscape:window-maximized="1"
     inkscape:current-layer="svg7">
    <sodipodi:guide
       position="3.5962315,14.018843"
       orientation="0,-1"
       id="guide265"
       inkscape:locked="false" />
    <sodipodi:guide
       position="3.897712,2.0026918"
       orientation="0,-1"
       id="guide267"
       inkscape:locked="false" />
    <sodipodi:guide
       position="1.9811575,12.66218"
       orientation="1,0"
       id="guide269"
       inkscape:locked="false" />
    <sodipodi:guide
       position="13.997308,13.695828"
       orientation="1,0"
       id="guide271"
       inkscape:locked="false" />
  </sodipodi:namedview>
  <defs
     id="defs3">
    <style
       id="current-color-scheme"
       type="text/css">
   .ColorScheme-Text { color:#444444; } .ColorScheme-Highlight { color:#4285f4; } .ColorScheme-NeutralText { color:#ff9800; } .ColorScheme-PositiveText { color:#4caf50; } .ColorScheme-NegativeText { color:#f44336; }
  </style>
  </defs>
  <path
     style="fill:#ffffff"
     class="ColorScheme-Text"
     d="M 3,1 C 1.1329652,1.0030589 1,0.99032197 1,3 V 5.9941406 L 1.9881511,6 2.0007045,1.9793233 13.983692,1.9757601 13.997298,14.013523 1.9847115,13.987942 2.0128977,10 1,9.9941406 V 13 c 0,1.989952 0.059158,2 2,2 h 10 c 1.972136,0 2,-0.0024 2,-2 V 3 C 15,0.97062281 14.922824,1 13,1 Z M 6.6298079,4.7678778 5.8242188,5.3867188 8.322221,7.4076551 0.35452373,7.5473416 0.36435507,8.4046268 8.3483411,8.5895967 5.8242188,10.654297 6.5502949,11.260235 11.210938,8 Z"
     id="path5"
     sodipodi:nodetypes="csccccccccssssssccccccccccc" />
</svg>
