<?xml version="1.0" encoding="UTF-8" standalone="no"?>
<svg
   viewBox="0 0 24 24"
   width="24"
   height="24"
   version="1.1"
   id="svg2"
   sodipodi:docname="network-wireless-connected-00.svg"
   inkscape:version="1.4 (e7c3feb100, 2024-10-09)"
   xmlns:inkscape="http://www.inkscape.org/namespaces/inkscape"
   xmlns:sodipodi="http://sodipodi.sourceforge.net/DTD/sodipodi-0.dtd"
   xmlns="http://www.w3.org/2000/svg"
   xmlns:svg="http://www.w3.org/2000/svg">
  <sodipodi:namedview
     id="namedview2"
     pagecolor="#ffffff"
     bordercolor="#000000"
     borderopacity="0.25"
     inkscape:showpageshadow="2"
     inkscape:pageopacity="0.0"
     inkscape:pagecheckerboard="0"
     inkscape:deskcolor="#d1d1d1"
     inkscape:zoom="50.166667"
     inkscape:cx="12.009967"
     inkscape:cy="12"
     inkscape:window-width="3396"
     inkscape:window-height="1412"
     inkscape:window-x="0"
     inkscape:window-y="0"
     inkscape:window-maximized="1"
     inkscape:current-layer="svg2" />
  <defs
     id="defs3051">
    <style
       type="text/css"
       id="current-color-scheme">.ColorScheme-Text { color: #fcfcfc; } </style>
  </defs>
  <g
     transform="translate(1,1)"
     id="g2">
    <path
       style="opacity:0.5;fill:currentColor;fill-opacity:1;stroke:none"
       d="M 11 15 C 9.892004 15 9 15.892004 9 17 C 9 18.107996 9.892004 19 11 19 C 12.107996 19 13 18.107996 13 17 C 13 15.892004 12.107996 15 11 15 z M 11 16 C 11.554 16 12 16.446 12 17 C 12 17.554 11.554 18 11 18 C 10.446 18 10 17.554 10 17 C 10 16.446 10.446 16 11 16 z "
       class="ColorScheme-Text"
       id="path1" />
    <path
       style="opacity:0.5;fill:currentColor;fill-opacity:1;stroke:none"
       d="M 11 3 C 6.845 3 3.0940625 4.6715625 0.3828125 7.3828125 L 1.0917969 8.0917969 C 3.6222969 5.5612969 7.122 4 11 4 C 14.878 4 18.377703 5.5612969 20.908203 8.0917969 L 21.617188 7.3828125 C 18.905938 4.6715625 15.155 3 11 3 z M 11 7 C 7.953 7 5.2030937 8.2265938 3.2148438 10.214844 L 3.921875 10.921875 C 5.729375 9.114365 8.23 8 11 8 C 13.77 8 16.270615 9.114365 18.078125 10.921875 L 18.785156 10.214844 C 16.796906 8.2265937 14.047 7 11 7 z M 11 11 C 9.061 11 7.3101719 11.779672 6.0449219 13.044922 L 6.7539062 13.753906 C 7.8384062 12.669406 9.338 12 11 12 C 12.662 12 14.161594 12.669406 15.246094 13.753906 L 15.955078 13.044922 C 14.689828 11.779672 12.939 11 11 11 z "
       class="ColorScheme-Text"
       id="path2" />
  </g>
  <path
     style="color:#da4453;fill:currentColor;fill-opacity:1;stroke:none;stroke-width:2.4607"
     class="ColorScheme-NegativeText"
     d="m 16.345515,5.6976746 v 8.7308964 h 2.774086 V 5.6976746 Z m 0,10.9136214 v 2.182724 h 2.774086 v -2.182724 z"
     id="path2-3" />
</svg>
