<?xml version="1.0" encoding="UTF-8" standalone="no"?>
<!-- Created with Inkscape (http://www.inkscape.org/) -->

<svg
   version="1.1"
   id="svg2"
   xml:space="preserve"
   width="1666.9723"
   height="1011.4062"
   viewBox="0 0 1666.9723 1011.4062"
   sodipodi:docname="osos.svg"
   inkscape:version="1.1.2 (0a00cf5339, 2022-02-04)"
   xmlns:inkscape="http://www.inkscape.org/namespaces/inkscape"
   xmlns:sodipodi="http://sodipodi.sourceforge.net/DTD/sodipodi-0.dtd"
   xmlns="http://www.w3.org/2000/svg"
   xmlns:svg="http://www.w3.org/2000/svg"><defs
     id="defs6" /><sodipodi:namedview
     id="namedview4"
     pagecolor="#ffffff"
     bordercolor="#666666"
     borderopacity="1.0"
     inkscape:pageshadow="2"
     inkscape:pageopacity="0.0"
     inkscape:pagecheckerboard="0"
     showgrid="false"
     inkscape:zoom="0.23769684"
     inkscape:cx="-336.56317"
     inkscape:cy="-54.691515"
     inkscape:window-width="1920"
     inkscape:window-height="1051"
     inkscape:window-x="1920"
     inkscape:window-y="0"
     inkscape:window-maximized="1"
     inkscape:current-layer="g8" /><g
     id="g8"
     inkscape:groupmode="layer"
     inkscape:label="ink_ext_XXXXXX"
     transform="matrix(1.3333333,0,0,-1.3333333,-273.7791,1174.5843)"><g
       id="g2046"
       transform="translate(-11.801105,-1.4067613)"><path
         style="fill:#3ea447;stroke-width:0.75"
         d="m 578.25018,124.12667 c -21.53965,0.74775 -42.90201,3.5493 -65.625,8.6064 -114.90226,25.57185 -212.07984,103.68382 -261.19808,209.95268 -14.92113,32.28233 -25.8632,68.60989 -30.82367,102.33427 -3.23133,21.96858 -3.47847,26.00414 -3.46768,56.625 0.0113,32.07205 0.50181,38.79038 4.5678,62.5642 10.25713,59.97327 35.14433,117.77395 71.55452,166.1858 10.73937,14.27933 18.44895,23.25203 31.49211,36.65169 62.43823,64.14486 142.89127,103.31918 232.91088,113.40933 14.2564,1.59798 48.70785,2.21294 63.71412,1.13731 58.1502,-4.16813 112.54807,-20.64329 163.125,-49.40471 16.57699,-9.42678 40.01753,-25.52352 53.61125,-36.81511 2.05494,-1.70693 3.97288,-3.10351 4.26209,-3.10351 0.28921,0 3.33289,2.44725 6.76374,5.43833 42.94258,37.43818 100.98524,65.05872 162.61294,77.38201 26.0299,5.20504 47.9923,7.26754 77.25,7.25459 27.2335,-0.0121 44.7494,-1.49856 68.25,-5.79209 136.8022,-24.99367 249.0697,-122.70444 292.0216,-254.15784 8.6011,-26.32357 13.3701,-48.48335 17.1089,-79.5 0.674,-5.59123 0.9911,-17.91823 0.9839,-38.25 -0.011,-32.07205 -0.5018,-38.79038 -4.5678,-62.5642 -10.2571,-59.97327 -35.1443,-117.77395 -71.5545,-166.1858 -10.7394,-14.27932 -18.4489,-23.25202 -31.4921,-36.65169 -62.4383,-64.14486 -142.8913,-103.31918 -232.9109,-113.40936 -14.2564,-1.59795 -48.7078,-2.21295 -63.7141,-1.1373 -58.1502,4.16813 -112.54809,20.64331 -163.12502,49.40473 -16.577,9.42678 -40.01753,25.52352 -53.61125,36.81511 -2.05494,1.70693 -3.97288,3.10351 -4.26209,3.10351 -0.28921,0 -3.33289,-2.44725 -6.76374,-5.43833 -28.11035,-24.50714 -63.62103,-45.43124 -101.48792,-59.80011 -36.4142,-13.81763 -80.95372,-23.17741 -116.25,-24.42938 -19.40159,-0.6882 -25.10611,-0.72083 -39.375,-0.22553 z m 41.37784,1.4211 c 24.84667,1.68075 46.82671,5.0898 70.27227,10.89911 28.10731,6.96439 50.40144,15.1998 76.97489,28.43439 25.81923,12.85895 45.28506,25.56351 65.5182,42.76107 5.09751,4.33272 9.48501,7.8758 9.75,7.8735 0.26499,-0.002 2.8443,-1.90024 5.7318,-4.21764 29.80688,-23.92197 61.2627,-42.80133 94.5,-56.71765 96.17892,-40.26973 202.87442,-39.14675 298.50002,3.14174 113.0973,50.01498 194.7117,152.64213 218.9308,275.29773 10.7269,54.32518 9.2225,110.31803 -4.4031,163.875 -29.3193,115.24357 -110.0705,209.01187 -219.4869,254.86825 -76.5942,32.10062 -159.624,38.32139 -241.31592,18.07989 -28.1073,-6.96439 -50.40145,-15.1998 -76.9749,-28.43439 -25.81923,-12.85896 -45.28506,-25.56351 -65.5182,-42.76106 -5.09751,-4.33273 -9.48501,-7.87581 -9.75,-7.87351 -0.26499,0.002 -2.8443,1.90024 -5.7318,4.21764 -29.80688,23.92198 -61.2627,42.80134 -94.5,56.71765 -96.17896,40.26972 -202.8744,39.14674 -298.5,-3.14174 C 330.52789,798.55277 248.91352,695.92562 224.69432,573.27002 213.96744,518.94484 215.4719,462.952 229.09744,409.39502 258.41679,294.15145 339.16798,200.38315 448.58435,154.52677 c 19.14788,-8.02487 32.82086,-12.63827 52.41583,-17.68563 38.21677,-9.84399 80.51936,-13.87127 118.62784,-11.29337 z m -43.62784,23.71593 c -51.57395,3.53945 -94.0811,14.80904 -138.375,36.68633 -79.24265,39.13888 -140.68071,106.39833 -172.44667,188.78639 -26.23873,68.05266 -30.68031,141.72192 -12.80629,212.4086 21.84298,86.38281 73.66656,160.39116 146.68844,209.48323 20.14258,13.54171 45.82161,26.99983 68.68319,35.99618 76.8745,30.25117 161.69259,32.58537 239.36921,6.58745 31.16055,-10.42926 58.57353,-23.84407 86.01212,-42.09086 13.25305,-8.81333 30.25502,-21.66566 30.9064,-23.36311 0.20646,-0.53803 -1.28901,-2.92104 -3.32325,-5.29556 -6.53598,-7.6293 -11.44701,-14.60611 -12.31083,-17.48927 -1.04973,-3.5037 -0.38492,-7.26251 1.7991,-10.17192 0.92322,-1.22987 26.99108,-26.12452 57.92858,-55.32147 30.9375,-29.19694 57.43125,-54.35738 58.875,-55.91209 5.66705,-6.10259 15.21737,-40.97639 19.21702,-70.17258 0.90752,-6.62457 1.37344,-18.20479 1.76528,-43.875 0.48739,-31.93085 0.6727,-35.53981 2.19502,-42.75 8.50601,-40.28732 32.2923,-69.28632 73.1977,-89.23864 23.2839,-11.35716 40.8834,-15.7477 63.1617,-15.75693 55.796,-0.0232 106.25,33.64895 126.4201,84.37057 6.6477,16.71685 9.4989,30.22154 10.0921,47.80015 0.4739,14.04568 -0.5932,25.0972 -3.6201,37.49314 -9.4761,38.80609 -35.1636,71.05805 -70.0538,87.95608 -14.2292,6.89149 -32.4737,12.41362 -49.9018,15.104 -10.4042,1.60611 -32.717,1.81631 -41.5982,0.39189 -24.0977,-3.8649 -45.4274,-13.79451 -62.9902,-29.32371 -3.29452,-2.9131 -6.1872,-5.29655 -6.4281,-5.29655 -0.3378,0 -139.03814,130.77241 -148.72428,140.22342 -1.65131,1.61122 -2.0181,2.48273 -1.5997,3.80098 0.82764,2.60764 26.6631,28.12711 35.99226,35.55204 16.43823,13.08292 38.95232,27.12052 58.66717,36.57915 77.51415,37.18915 168.98055,45.1599 251.83285,21.94573 45.3117,-12.69577 89.5209,-35.28511 125.7436,-64.25061 63.0282,-50.40049 106.999,-120.93261 124.2781,-199.35071 8.4904,-38.53173 10.5059,-80.58007 5.6804,-118.5 -13.1392,-103.24942 -69.5352,-195.22647 -154.8876,-252.60823 -20.1426,-13.5417 -45.8216,-26.99983 -68.6832,-35.99618 -107.0133,-42.11117 -226.28689,-29.52235 -323.45179,34.13903 -11.5645,7.57694 -23.55807,16.50478 -35.67953,26.55935 -9.6194,7.97913 -33.47956,31.8301 -41.54705,41.53103 -38.69693,46.53194 -63.63542,96.9975 -74.3106,150.375 -4.17176,20.85947 -4.67332,27.02431 -5.24758,64.5 -0.48922,31.92577 -0.67501,35.54096 -2.19709,42.75 -8.50601,40.28732 -32.29233,69.28632 -73.19768,89.23865 -23.28392,11.35715 -40.88342,15.74769 -63.16171,15.75693 -55.79601,0.0231 -106.24999,-33.64896 -126.42011,-84.37058 -6.64768,-16.71685 -9.49894,-30.22153 -10.09209,-47.80015 -0.47394,-14.04567 0.59313,-25.09719 3.62011,-37.49313 9.4761,-38.8061 35.16361,-71.05807 70.0538,-87.95609 14.2292,-6.89149 32.47362,-12.41362 49.90174,-15.104 10.40424,-1.6061 32.71703,-1.81631 41.59826,-0.39189 24.09762,3.8649 45.42738,13.79451 62.99014,29.32371 3.29459,2.9131 6.17833,5.29655 6.40832,5.29655 0.60817,0 36.77689,-34.22737 37.82968,-35.79917 0.48842,-0.72921 2.3569,-4.86958 4.15219,-9.20083 4.51274,-10.88728 15.78832,-32.93542 22.82156,-44.625 14.69294,-24.42035 32.65511,-47.82938 52.53003,-68.45926 5.16619,-5.36244 9.39308,-10.05295 9.39308,-10.42337 0,-1.71712 -20.47346,-17.72413 -34.125,-26.68034 -48.89883,-32.08052 -106.65988,-50.97083 -168.99716,-55.26925 -10.39336,-0.71667 -35.07753,-0.88589 -43.62784,-0.2991 z m 286.875,217.67441 c 21.27668,5.63633 41.45807,19.14515 53.9877,36.13774 4.57594,6.20586 11.16329,19.33849 13.21321,26.34203 2.04366,6.98211 2.86173,27.31209 1.42641,35.44767 -1.82799,10.36126 -7.19443,22.37827 -13.93039,31.19415 -4.83076,6.32239 -15.01324,15.59315 -22.88894,20.83949 -8.27258,5.51072 -28.81016,15.77003 -41.41875,20.69025 -14.40666,5.62187 -25.54752,11.99413 -28.60728,16.36255 -1.4829,2.11714 -1.48151,5.77092 0.003,7.89037 2.56594,3.66339 16.51058,5.41052 25.84002,3.2375 5.10314,-1.18863 12.1773,-4.66426 19.89226,-9.77331 11.1824,-7.40531 14.64735,-8.26822 20.47472,-5.09903 1.70659,0.92813 10.40054,8.09515 19.31988,15.92672 20.49306,17.99381 22.12538,20.62266 17.93709,28.88786 -4.38043,8.64439 -35.8223,28.78065 -56.04277,35.89136 -11.23862,3.95216 -17.89444,4.83381 -33.20616,4.39855 -11.14474,-0.31681 -14.75271,-0.71129 -20.68033,-2.26115 -18.40985,-4.81348 -34.75755,-14.81265 -46.22102,-28.27137 -5.93135,-6.96371 -13.77386,-22.2223 -15.75165,-30.64685 -1.03323,-4.4011 -1.3412,-8.79497 -1.32208,-18.86262 0.0298,-15.68309 0.754,-18.99878 6.85838,-31.40007 3.67119,-7.45815 5.09771,-9.46414 11.39839,-16.02856 11.90936,-12.40786 28.64796,-22.19598 59.18433,-34.60883 15.81331,-6.42802 22.95143,-10.41622 28.41835,-15.87785 6.5392,-6.53288 6.08784,-11.11976 -1.67628,-17.03456 -9.47973,-7.2218 -24.29573,-7.89888 -37.30034,-1.70461 -2.14926,1.02372 -6.27025,3.72681 -9.15775,6.00685 -9.10214,7.1873 -10.67724,8.09882 -14.65511,8.48104 -3.57643,0.34365 -4.70099,-0.10403 -25.23525,-10.04601 -18.93977,-9.16998 -21.74394,-10.75345 -23.61333,-13.33408 -1.70382,-2.35204 -2.12131,-3.72395 -2.12131,-6.97073 0,-4.9539 1.42138,-7.89779 7.51652,-15.56789 15.82482,-19.91387 35.3834,-33.22795 57.87809,-39.39928 9.19632,-2.52298 13.73627,-2.93573 29.48039,-2.68021 12.34858,0.2004 16.06057,0.52438 21,1.83288 z m -39.67949,10.28727 c -17.59942,3.17813 -33.80941,11.33809 -47.49261,23.90734 -6.08878,5.5931 -17.4529,19.32461 -17.4529,21.08873 0,0.75984 6.05585,4.09227 17.8125,9.8019 9.79687,4.75785 18.53993,8.933 19.429,9.2781 1.3313,0.51675 2.78685,-0.29246 8.25,-4.5866 12.37176,-9.72443 22.97398,-13.74146 36.2585,-13.73783 9.2662,0.002 15.84154,1.7081 22.875,5.93352 11.59177,6.96386 16.13755,16.25875 13.02777,26.63826 -2.92862,9.77486 -16.22606,19.27441 -40.40277,28.86328 -36.8302,14.60747 -55.39271,27.7056 -63.74925,44.98294 -4.55313,9.41371 -5.55869,14.15629 -5.56571,26.25 -0.007,12.66693 1.12008,17.75247 6.31827,28.5 11.89862,24.60104 38.88887,40.125 69.76208,40.125 13.49634,0 25.96412,-3.17665 40.32236,-10.27371 11.73027,-5.79808 35.41225,-22.23401 35.41225,-24.57705 0,-1.41747 -31.56802,-28.89924 -33.19624,-28.89924 -0.76234,0 -3.30817,1.29847 -5.65741,2.88549 -7.20899,4.87 -16.21139,9.79565 -20.76883,11.36365 -15.92304,5.47832 -36.83603,2.56699 -43.03544,-5.99104 -2.6121,-3.6059 -4.18035,-10.03634 -3.47124,-14.2335 1.6143,-9.55491 13.08336,-17.99281 38.25416,-28.14395 51.01503,-20.57387 70.875,-41.93388 70.875,-76.22825 0,-18.77871 -7.22573,-35.22831 -21.73265,-49.47511 -13.06829,-12.83394 -27.77014,-20.58906 -44.59377,-23.52284 -8.17126,-1.42495 -23.442,-1.40025 -31.47807,0.0509 z m 34.52472,1.73694 c 28.11319,5.76136 53.45189,28.92027 60.37668,55.1827 2.2329,8.46835 2.23599,23.75965 0.007,32.25 -6.14838,23.41445 -24.63176,40.54646 -59.72843,55.36151 -5.3625,2.26363 -13.125,5.53159 -17.25,7.26213 -14.65668,6.14887 -24.61149,13.2399 -28.42606,20.24852 -1.93858,3.5618 -2.10257,4.43269 -1.78028,9.45453 0.8585,13.38091 10.59787,19.79831 30.04669,19.79831 13.1457,0 21.77266,-3.08133 37.65496,-13.44941 3.20205,-2.09033 6.04118,-3.80059 6.30916,-3.80059 1.08134,0 31.1953,27.03916 31.1953,28.0101 0,2.49413 -20.04963,16.55251 -33,23.13891 -15.46309,7.86433 -26.36074,10.658 -41.25,10.57462 -30.68147,-0.1718 -56.99818,-15.33717 -68.61503,-39.54035 -4.06876,-8.47708 -5.29979,-13.64878 -5.79195,-24.33259 -0.6775,-14.70736 1.63926,-24.10996 8.61591,-34.96791 8.76804,-13.64592 26.99195,-25.53096 58.74157,-38.30933 21.1301,-8.50431 31.87355,-14.94156 38.11518,-22.83782 9.97995,-12.62558 5.21012,-27.29614 -11.77706,-36.22264 -2.85631,-1.50095 -7.35224,-3.23791 -9.99095,-3.85991 -6.26487,-1.47676 -16.93845,-1.45891 -23.12475,0.0386 -7.29298,1.76547 -17.60848,7.06159 -24.60806,12.63413 -3.40182,2.7083 -6.40902,4.92416 -6.68265,4.92416 -1.47503,0 -37.00721,-17.67093 -37.00721,-18.40449 0,-1.59625 7.70398,-11.13799 14.23749,-17.6338 15.53422,-15.44457 33.5166,-24.33219 54.39008,-26.88176 7.95461,-0.97161 20.8828,-0.37136 29.34266,1.36235 z m 485.90479,-11.27421 c 21.2767,5.63633 41.458,19.14515 53.9877,36.13774 4.5759,6.20586 11.1633,19.33849 13.2132,26.34203 2.0437,6.98211 2.8617,27.31209 1.4264,35.44767 -1.828,10.36126 -7.1944,22.37827 -13.9304,31.19415 -4.8308,6.32239 -15.0132,15.59315 -22.8889,20.83949 -8.2726,5.51072 -28.8102,15.77003 -41.4187,20.69025 -14.4067,5.62187 -25.5476,11.99413 -28.6074,16.36255 -1.4829,2.11714 -1.4814,5.77092 0,7.89037 2.566,3.66339 16.5106,5.41052 25.8401,3.2375 5.1031,-1.18863 12.1773,-4.66426 19.8922,-9.77331 11.1825,-7.40531 14.6474,-8.26822 20.4747,-5.09903 1.7067,0.92813 10.4006,8.09515 19.32,15.92672 20.493,17.99381 22.1253,20.62266 17.937,28.88786 -4.3804,8.64439 -35.8223,28.78065 -56.0427,35.89136 -11.2386,3.95216 -17.8945,4.83381 -33.2062,4.39855 -11.1448,-0.31681 -14.7527,-0.71129 -20.6804,-2.26115 -18.4098,-4.81348 -34.7575,-14.81265 -46.221,-28.27137 -5.9313,-6.96371 -13.7738,-22.2223 -15.7516,-30.64685 -1.0332,-4.4011 -1.3412,-8.79497 -1.3221,-18.86262 0.03,-15.68309 0.754,-18.99878 6.8584,-31.40007 3.6712,-7.45815 5.0977,-9.46414 11.3984,-16.02856 11.9093,-12.40786 28.648,-22.19598 59.1843,-34.60883 15.8133,-6.42802 22.9514,-10.41622 28.4184,-15.87785 6.5392,-6.53288 6.0878,-11.11976 -1.6763,-17.03456 -9.4797,-7.2218 -24.2958,-7.89888 -37.3004,-1.70461 -2.1493,1.02372 -6.2702,3.72681 -9.1577,6.00685 -9.1022,7.1873 -10.6772,8.09882 -14.6551,8.48104 -3.5764,0.34365 -4.701,-0.10403 -25.2353,-10.04601 -18.9398,-9.16998 -21.7439,-10.75345 -23.6133,-13.33408 -1.7038,-2.35204 -2.1213,-3.72395 -2.1213,-6.97073 0,-4.9539 1.4214,-7.89779 7.5165,-15.56789 15.8248,-19.91387 35.3834,-33.22795 57.8781,-39.39928 9.1963,-2.52298 13.7362,-2.93573 29.4804,-2.68021 12.3486,0.2004 16.0606,0.52438 21,1.83288 z m -39.6795,10.28727 c -17.5994,3.17813 -33.8094,11.33809 -47.4926,23.90734 -6.0888,5.5931 -17.4529,19.32461 -17.4529,21.08873 0,0.75984 6.0559,4.09227 17.8125,9.8019 9.7969,4.75785 18.5399,8.933 19.429,9.2781 1.3313,0.51675 2.7868,-0.29246 8.25,-4.5866 12.3717,-9.72443 22.974,-13.74146 36.2585,-13.73783 9.2662,0.002 15.8416,1.7081 22.875,5.93352 11.5918,6.96386 16.1375,16.25875 13.0278,26.63826 -2.9287,9.77486 -16.2261,19.27441 -40.4028,28.86328 -36.8302,14.60747 -55.3927,27.7056 -63.7493,44.98294 -4.5531,9.41371 -5.5587,14.15629 -5.5656,26.25 -0.01,12.66693 1.12,17.75247 6.3182,28.5 11.8986,24.60104 38.8888,40.125 69.7621,40.125 13.4963,0 25.9641,-3.17665 40.3224,-10.27371 11.7302,-5.79808 35.4122,-22.23401 35.4122,-24.57705 0,-1.41747 -31.568,-28.89924 -33.1963,-28.89924 -0.7623,0 -3.3081,1.29847 -5.6574,2.88549 -7.209,4.87 -16.2114,9.79565 -20.7688,11.36365 -15.9231,5.47832 -36.836,2.56699 -43.0354,-5.99104 -2.6121,-3.6059 -4.1804,-10.03634 -3.4712,-14.2335 1.6142,-9.55491 13.0833,-17.99281 38.2541,-28.14395 51.015,-20.57387 70.875,-41.93388 70.875,-76.22825 0,-18.77871 -7.2257,-35.22831 -21.7327,-49.4751 -13.0683,-12.83395 -27.7701,-20.58906 -44.5937,-23.52285 -8.1713,-1.42495 -23.442,-1.40025 -31.4781,0.0509 z m 34.5247,1.73694 c 28.1132,5.76136 53.4519,28.92027 60.3767,55.1827 2.2329,8.46835 2.236,23.75965 0.01,32.25 -6.1484,23.41445 -24.6318,40.54646 -59.7284,55.36151 -5.3625,2.26363 -13.125,5.53159 -17.25,7.26213 -14.6568,6.14887 -24.6115,13.2399 -28.4261,20.24852 -1.9386,3.5618 -2.1025,4.43269 -1.7803,9.45453 0.8577,13.38091 10.5972,19.79831 30.0459,19.79831 13.1457,0 21.7727,-3.08133 37.6551,-13.44941 3.202,-2.09033 6.0411,-3.80059 6.3091,-3.80059 1.0814,0 31.1953,27.03916 31.1953,28.0101 0,2.49413 -20.0496,16.55251 -33,23.13891 -15.4631,7.86433 -26.3607,10.658 -41.25,10.57462 -30.6815,-0.1718 -56.9982,-15.33717 -68.615,-39.54035 -4.0688,-8.47708 -5.2998,-13.64878 -5.792,-24.33259 -0.6775,-14.70736 1.6393,-24.10996 8.6159,-34.96791 8.7681,-13.64592 26.9919,-25.53096 58.7416,-38.30933 21.1301,-8.50431 31.8735,-14.94156 38.1152,-22.83782 9.9799,-12.62558 5.2101,-27.29614 -11.7771,-36.22264 -2.8563,-1.50095 -7.3522,-3.23791 -9.9909,-3.85991 -6.2649,-1.47676 -16.9385,-1.45891 -23.1248,0.0386 -7.293,1.76547 -17.6085,7.06159 -24.6081,12.63413 -3.4018,2.7083 -6.409,4.92416 -6.6826,4.92416 -1.4751,0 -37.0072,-17.67093 -37.0072,-18.40449 0,-1.59625 7.704,-11.13799 14.2375,-17.6338 15.5342,-15.44457 33.5166,-24.33219 54.39,-26.88176 7.9547,-0.97161 20.8829,-0.37136 29.3427,1.36235 z m -745.22022,9.09411 c -17.83579,2.22231 -35.19293,7.35925 -49.53754,14.66088 -30.10979,15.32637 -51.12575,44.56563 -57.08931,79.42771 -1.98614,11.61068 -1.6212,30.49215 0.80622,41.71178 4.92589,22.76779 14.73782,40.93305 30.76932,56.96454 17.04901,17.049 37.27062,27.48618 61.17631,31.57553 7.56038,1.29329 11.03947,1.47603 21.75,1.1424 19.47541,-0.60666 29.47922,-3.32418 50.25,-13.65036 14.97288,-7.44377 24.3419,-13.91082 33.78123,-23.31781 14.09369,-14.04541 22.24064,-30.20651 26.33932,-52.24925 1.07335,-5.77248 1.30143,-12.05127 1.36864,-37.67683 0.0862,-32.87263 0.64372,-40.41292 4.55915,-61.66453 1.00466,-5.45301 1.82666,-10.43113 1.82666,-11.0625 0,-2.44824 -2.52177,-0.86951 -10.08363,6.31274 -8.48057,8.05483 -11.5217,9.65547 -16.55198,8.71178 -2.28644,-0.42893 -4.37168,-2.16508 -11.73917,-9.7739 -4.92737,-5.08877 -11.89317,-11.34253 -15.47954,-13.89724 -10.57153,-7.53049 -24.52213,-13.50589 -37.66428,-16.13257 -6.96769,-1.39261 -26.9559,-2.02005 -34.4814,-1.08237 z m 36.75,2.847 c 20.04517,4.68696 36.28382,14.17565 50.41855,29.46094 3.82605,4.13748 7.94312,8.04155 9.14905,8.67571 4.8073,2.528 11.76506,0.95702 15.85674,-3.58027 2.90682,-3.22337 11.63757,-10.62787 12.04779,-10.21765 0.23183,0.23182 -0.45502,5.2548 -1.52633,11.16218 -3.75751,20.71956 -4.38866,29.44273 -4.52141,62.49068 -0.11283,28.09091 -0.26003,31.40111 -1.70234,38.27944 -3.08379,14.70661 -9.03786,28.52073 -16.63519,38.59556 -17.83521,23.65132 -53.71369,43.15186 -85.55586,46.501 -19.14617,2.01378 -39.26618,-1.73357 -58.3281,-10.8636 -31.24318,-14.96445 -52.74161,-42.24983 -60.11936,-76.30227 -5.71949,-26.3987 -2.42455,-51.91456 9.76407,-75.61245 11.69544,-22.73902 30.44418,-40.08216 53.5196,-49.50722 10.98061,-4.48499 24.90564,-8.30146 37.08232,-10.16327 9.52674,-1.45663 32.29275,-0.84961 40.55047,1.08122 z m 439.50002,1.22016 c -12.9086,2.17959 -23.6637,6.0644 -39.75,14.35785 -27.9395,14.40449 -46.16394,34.98955 -53.55392,60.49088 -4.1457,14.30587 -4.47323,17.98117 -4.5603,51.1727 -0.0863,32.87263 -0.64373,40.41292 -4.5591,61.66454 -1.0047,5.453 -1.8267,10.43112 -1.8267,11.0625 0,2.44823 2.5218,0.8695 10.0836,-6.31275 8.48062,-8.05483 11.52172,-9.65547 16.55205,-8.71178 2.28637,0.42893 4.37167,2.16509 11.73917,9.7739 13.8176,14.27022 25.825,21.94345 42.6252,27.2391 10.9534,3.45269 16.9801,4.26162 31.5,4.22814 17.1044,-0.0394 31.1124,-2.53489 48.4744,-8.63551 37.9668,-13.34071 64.7409,-45.40422 71.6524,-85.80814 1.9862,-11.61067 1.6212,-30.49215 -0.8062,-41.71177 -4.9259,-22.7678 -14.7378,-40.93305 -30.7693,-56.96454 -16.9139,-16.91394 -37.2792,-27.48132 -60.6884,-31.49077 -9.9138,-1.69803 -27.1533,-1.86719 -36.1129,-0.35435 z m 37.8761,1.93107 c 10.4126,2.0094 17.78,4.47074 27.921,9.32796 31.2431,14.96445 52.7416,42.24983 60.1193,76.30227 5.7195,26.3987 2.4246,51.91456 -9.764,75.61245 -9.2305,17.94654 -23.473,33.17265 -40.2055,42.98226 -13.7976,8.08895 -34.6032,14.68746 -53.7217,17.03788 -9.9999,1.22938 -28.8134,0.49793 -37.2252,-1.44727 -19.9453,-4.61224 -36.2733,-14.14786 -50.4185,-29.44454 -3.8261,-4.13748 -7.94322,-8.04155 -9.14914,-8.67571 -4.80728,-2.528 -11.76503,-0.95702 -15.85673,3.58027 -2.90677,3.22337 -11.6376,10.62788 -12.04777,10.21765 -0.23183,-0.23182 0.45502,-5.2548 1.52632,-11.16218 3.7575,-20.71956 4.38863,-29.44273 4.52138,-62.49068 0.11287,-28.0909 0.2601,-31.4011 1.70235,-38.27944 3.08385,-14.70661 9.03787,-28.52073 16.63522,-38.59556 17.25337,-22.87974 53.16027,-42.80066 83.71187,-46.44286 8.3089,-0.99054 22.9339,-0.32054 32.2511,1.4775 z"
         id="path2050" /><path
         style="fill:#205527;stroke-width:0.75"
         d="m 570.75018,125.59607 c -135.57257,8.82924 -256.44863,89.99614 -315.41709,211.79895 -35.63176,73.59947 -46.36507,156.23077 -30.63877,235.875 6.95919,35.24407 17.54473,66.0416 34.02767,99 39.08239,78.14699 104.9323,140.93223 184.90319,176.29773 68.34658,30.22489 141.75974,39.54114 215.25,27.31557 63.99995,-10.64679 124.57085,-38.21174 177.75,-80.89148 2.8875,-2.3174 5.46681,-4.21534 5.7318,-4.21764 0.26499,-0.002 4.65249,3.54078 9.75,7.87351 20.23314,17.19755 39.69897,29.9021 65.5182,42.76106 26.57345,13.23459 48.8676,21.47 76.9749,28.43439 63.04992,15.6224 127.23992,15.48842 188.90012,-0.39427 107.8272,-27.77457 197.4346,-100.92686 245.6671,-200.55387 35.6317,-73.59946 46.365,-156.23077 30.6387,-235.875 -6.9591,-35.24407 -17.5447,-66.0416 -34.0276,-99 -39.0824,-78.14699 -104.9323,-140.93223 -184.9032,-176.29773 -68.3466,-30.22489 -141.7598,-39.54117 -215.25,-27.31557 -63.99997,10.64679 -124.57087,38.21174 -177.75002,80.89148 -2.8875,2.3174 -5.46681,4.21534 -5.7318,4.21764 -0.26499,0.002 -4.65249,-3.54078 -9.75,-7.8735 -20.23314,-17.19756 -39.69897,-29.90211 -65.5182,-42.76107 -9.4875,-4.72514 -22.3125,-10.58423 -28.5,-13.02021 -52.577,-20.69916 -111.44782,-29.92364 -167.625,-26.26499 z m 48.87784,23.96673 c 62.33728,4.29842 120.09833,23.18873 168.99716,55.26925 13.65154,8.95621 34.125,24.96322 34.125,26.68034 0,0.37042 -4.22689,5.06093 -9.39307,10.42337 -19.87493,20.62988 -37.8371,44.03891 -52.53004,68.45926 -7.03324,11.68958 -18.30882,33.73772 -22.82156,44.625 -1.79529,4.33125 -3.66377,8.47162 -4.15218,9.20083 -1.0528,1.5718 -37.22152,35.79917 -37.82969,35.79917 -0.22999,0 -3.11373,-2.38345 -6.40831,-5.29655 -17.56277,-15.5292 -38.89253,-25.45881 -62.99015,-29.32371 -8.88123,-1.42442 -31.19402,-1.21421 -41.59826,0.39189 -24.26076,3.74514 -48.00624,12.37098 -64.90174,23.57635 -31.95296,21.19175 -53.81485,57.5693 -58.14096,96.74489 -1.1438,10.35781 -0.6089,29.41594 1.0885,38.78213 5.65893,31.22599 20.70072,58.69714 43.05224,78.62729 33.78733,30.12713 80.48025,41.87471 123.87522,31.16608 21.31397,-5.25968 49.31124,-19.94992 66.19243,-34.73136 19.71615,-17.26375 32.42241,-39.40277 38.13025,-66.43701 1.52208,-7.20904 1.70787,-10.82423 2.19709,-42.75 0.57426,-37.47569 1.07582,-43.64053 5.24758,-64.5 10.67517,-53.3775 35.61367,-103.84306 74.3106,-150.375 8.06749,-9.70093 31.92765,-33.5519 41.54705,-41.53103 12.12146,-10.05457 24.11503,-18.98241 35.67953,-26.55935 97.16489,-63.66138 216.43849,-76.2502 323.45179,-34.13903 55.6108,21.88363 104.6532,57.18414 142.9383,102.88642 55.1655,65.85316 85.4238,152.24045 83.0448,237.09299 -1.6813,59.96547 -17.5074,116.17423 -47.1876,167.5933 -49.2342,85.29529 -132.626,146.16311 -230.0518,167.91531 -22.3128,4.98177 -43.2159,7.46639 -68.25,8.11247 -57.0007,1.47106 -113.89569,-10.58219 -164.45785,-34.84049 -19.71485,-9.45863 -42.22894,-23.49623 -58.66717,-36.57915 -9.32916,-7.42493 -35.16462,-32.9444 -35.99226,-35.55204 -0.4184,-1.31825 -0.0516,-2.18976 1.5997,-3.80098 9.68614,-9.45101 148.38648,-140.22342 148.72428,-140.22342 0.24091,0 3.13358,2.38345 6.4281,5.29655 17.5628,15.5292 38.8925,25.45881 62.9902,29.32371 8.8812,1.42442 31.194,1.21422 41.5982,-0.39189 24.2608,-3.74514 48.0063,-12.37098 64.9018,-23.57635 31.953,-21.19175 53.8148,-57.5693 58.141,-96.74489 1.1437,-10.3578 0.6088,-29.41594 -1.0885,-38.78213 -5.659,-31.22599 -20.7008,-58.69714 -43.0523,-78.62729 -33.7873,-30.12713 -80.4802,-41.87471 -123.8752,-31.16608 -21.314,5.25968 -49.3112,19.94992 -66.19247,34.73136 -19.71615,17.26375 -32.42239,39.40277 -38.13023,66.43701 -1.52232,7.21019 -1.70763,10.81915 -2.19502,42.75 -0.64616,42.33101 -1.84337,53.04619 -9.05021,81 -4.72527,18.32833 -8.83599,29.71353 -11.93209,33.04758 -1.44375,1.55471 -27.9375,26.71515 -58.875,55.91209 -30.9375,29.19695 -57.00536,54.0916 -57.92858,55.32147 -2.18402,2.90941 -2.84883,6.66822 -1.79909,10.17192 0.86381,2.88316 5.77484,9.85997 12.31082,17.48927 2.03424,2.37452 3.52971,4.75753 3.32325,5.29556 -1.2273,3.19829 -35.37563,27.15306 -52.6564,36.93803 -93.66838,53.0383 -204.2754,61.02642 -303.63133,21.92849 -55.61082,-21.88363 -104.6532,-57.18414 -142.93824,-102.88642 -55.16557,-65.85316 -85.4238,-152.24045 -83.0448,-237.09299 1.68124,-59.96547 17.50737,-116.17423 47.18753,-167.5933 34.55314,-59.86119 86.33984,-108.31272 148.67684,-139.10169 44.2939,-21.87729 86.80105,-33.14688 138.375,-36.68633 8.55031,-0.58679 33.23448,-0.41757 43.62784,0.2991 z m 202.81072,215.99161 c -20.64459,3.22308 -41.63893,14.16598 -57.38255,29.9096 -6.87263,6.87263 -14.44674,16.1715 -16.58345,20.35979 -2.27362,4.45667 -2.00379,10.23783 0.64875,13.89954 1.86939,2.58063 4.67356,4.1641 23.61333,13.33408 27.26562,13.20107 25.25409,13.12216 39.89036,1.56497 2.8875,-2.28004 7.00849,-4.98312 9.15775,-6.00685 13.00461,-6.19427 27.82061,-5.51719 37.30034,1.70461 7.76412,5.9148 8.21548,10.50168 1.67628,17.03457 -5.46692,5.46162 -12.60504,9.44982 -28.41835,15.87784 -30.53637,12.41285 -47.27497,22.20097 -59.18433,34.60883 -6.30068,6.56442 -7.7272,8.57041 -11.39839,16.02856 -6.10438,12.40129 -6.8286,15.71698 -6.85838,31.40007 -0.0191,10.06766 0.28885,14.46152 1.32208,18.86262 1.97779,8.42455 9.8203,23.68314 15.75165,30.64685 11.46347,13.45872 27.81117,23.45789 46.22102,28.27137 5.92762,1.54986 9.53559,1.94434 20.68033,2.26115 15.31172,0.43526 21.96754,-0.44639 33.20616,-4.39855 20.22046,-7.11071 51.66234,-27.24697 56.04278,-35.89135 4.18829,-8.26521 2.55598,-10.89406 -17.93709,-28.88787 -8.91934,-7.83157 -17.61328,-14.99859 -19.31988,-15.92672 -5.82736,-3.16919 -9.29231,-2.30628 -20.47471,5.09903 -7.71496,5.10905 -14.78913,8.58468 -19.89226,9.77331 -9.32944,2.17302 -23.27408,0.42589 -25.84003,-3.2375 -1.48452,-2.11945 -1.48591,-5.77323 -0.003,-7.89037 3.05976,-4.36842 14.20062,-10.74068 28.60728,-16.36255 12.60859,-4.92022 33.14618,-15.17953 41.41876,-20.69025 7.8757,-5.24634 18.05818,-14.5171 22.88894,-20.83949 6.73596,-8.81588 12.10239,-20.83289 13.93038,-31.19415 1.43532,-8.13558 0.61725,-28.46556 -1.4264,-35.44767 -2.04992,-7.00354 -8.63728,-20.13617 -13.21321,-26.34203 -12.52963,-16.99259 -32.71102,-30.50141 -53.9877,-36.13774 -4.93944,-1.3085 -8.65143,-1.63248 -21,-1.83288 -8.25,-0.1339 -16.9964,0.0682 -19.43644,0.44918 z m 32.23502,11.62005 c 16.82363,2.93379 31.52548,10.68891 44.59377,23.52285 14.50692,14.2468 21.73265,30.6964 21.73265,49.47511 0,34.29437 -19.85997,55.65438 -70.875,76.22825 -25.1708,10.15114 -36.63986,18.58904 -38.25415,28.14395 -0.70911,4.19716 0.85914,10.6276 3.47123,14.2335 6.19942,8.55803 27.1124,11.46936 43.03544,5.99104 4.55744,-1.568 13.55984,-6.49365 20.76883,-11.36365 2.34924,-1.58702 4.89507,-2.88549 5.65741,-2.88549 1.62822,0 33.19624,27.48177 33.19624,28.89924 0,2.34304 -23.68198,18.77897 -35.41225,24.57705 -14.35824,7.09706 -26.82602,10.27371 -40.32236,10.27371 -30.87321,0 -57.86346,-15.52396 -69.76208,-40.125 -5.19819,-10.74753 -6.32562,-15.83307 -6.31827,-28.5 0.007,-12.09371 1.01258,-16.83629 5.56571,-26.25 8.35654,-17.27734 26.91905,-30.37547 63.74925,-44.98294 24.17671,-9.58887 37.47415,-19.08842 40.40277,-28.86328 3.10978,-10.37951 -1.436,-19.6744 -13.02777,-26.63826 -7.03346,-4.22542 -13.6088,-5.931 -22.875,-5.93352 -13.28452,-0.004 -23.88674,4.0134 -36.2585,13.73783 -5.46315,4.29414 -6.9187,5.10335 -8.25,4.5866 -0.88907,-0.3451 -9.63213,-4.52025 -19.429,-9.27811 -11.75665,-5.70963 -17.8125,-9.04205 -17.8125,-9.8019 0,-1.76411 11.36412,-15.49562 17.4529,-21.08872 10.4577,-9.60634 25.13579,-18.10159 37.36761,-21.62728 12.13889,-3.49889 29.36961,-4.46431 41.60307,-2.33098 z m 448.51494,-10.87005 c -20.6446,3.22308 -41.6389,14.16598 -57.3825,29.9096 -6.8726,6.87263 -14.4467,16.1715 -16.5835,20.35979 -2.2736,4.45667 -2.0037,10.23783 0.6488,13.89954 1.8694,2.58063 4.6735,4.1641 23.6133,13.33408 27.2656,13.20107 25.2541,13.12216 39.8904,1.56497 2.8875,-2.28004 7.0084,-4.98312 9.1577,-6.00685 13.0046,-6.19427 27.8207,-5.51719 37.3004,1.70461 7.7641,5.9148 8.2155,10.50168 1.6763,17.03457 -5.467,5.46162 -12.6051,9.44982 -28.4184,15.87784 -30.5363,12.41285 -47.275,22.20097 -59.1843,34.60883 -6.3007,6.56442 -7.7272,8.57041 -11.3984,16.02856 -6.1044,12.40129 -6.8286,15.71698 -6.8584,31.40007 -0.019,10.06766 0.2889,14.46152 1.3221,18.86262 1.9778,8.42455 9.8203,23.68314 15.7516,30.64685 11.4635,13.45872 27.8112,23.45789 46.221,28.27137 5.9277,1.54986 9.5356,1.94434 20.6804,2.26115 15.3117,0.43526 21.9676,-0.44639 33.2062,-4.39855 20.2204,-7.11071 51.6623,-27.24697 56.0427,-35.89135 4.1883,-8.26521 2.556,-10.89406 -17.937,-28.88787 -8.9194,-7.83157 -17.6133,-14.99859 -19.32,-15.92672 -5.8273,-3.16919 -9.2922,-2.30628 -20.4747,5.09903 -7.7149,5.10905 -14.7891,8.58468 -19.8922,9.77331 -9.3295,2.17302 -23.2741,0.42589 -25.8401,-3.2375 -1.4844,-2.11945 -1.4859,-5.77323 0,-7.89037 3.0598,-4.36842 14.2007,-10.74068 28.6074,-16.36255 12.6085,-4.92022 33.1461,-15.17953 41.4187,-20.69025 7.8757,-5.24634 18.0581,-14.5171 22.8889,-20.83949 6.736,-8.81588 12.1024,-20.83289 13.9304,-31.19415 1.4353,-8.13558 0.6173,-28.46556 -1.4264,-35.44767 -2.0499,-7.00354 -8.6373,-20.13617 -13.2132,-26.34203 -12.5297,-16.99259 -32.711,-30.50141 -53.9877,-36.13774 -4.9394,-1.3085 -8.6514,-1.63248 -21,-1.83288 -8.25,-0.13389 -16.9964,0.0682 -19.4365,0.44919 z m 32.2351,11.62005 c 16.8236,2.93379 31.5254,10.68891 44.5937,23.52285 14.507,14.2468 21.7327,30.6964 21.7327,49.47511 0,34.29437 -19.86,55.65437 -70.875,76.22825 -25.1708,10.15113 -36.6399,18.58904 -38.2541,28.14395 -0.7092,4.19716 0.8591,10.6276 3.4712,14.2335 6.1994,8.55803 27.1123,11.46936 43.0354,5.99104 4.5574,-1.568 13.5598,-6.49365 20.7688,-11.36365 2.3493,-1.58702 4.8951,-2.88549 5.6574,-2.88549 1.6283,0 33.1963,27.48177 33.1963,28.89924 0,2.34304 -23.682,18.77896 -35.4122,24.57705 -14.3583,7.09706 -26.8261,10.27371 -40.3224,10.27371 -30.8733,0 -57.8635,-15.52396 -69.7621,-40.125 -5.1982,-10.74753 -6.3256,-15.83307 -6.3182,-28.5 0.01,-12.09371 1.0125,-16.83629 5.5656,-26.25 8.3566,-17.27734 26.9191,-30.37547 63.7493,-44.98294 24.1767,-9.58887 37.4741,-19.08842 40.4028,-28.86328 3.1097,-10.37951 -1.436,-19.6744 -13.0278,-26.63826 -7.0334,-4.22542 -13.6088,-5.931 -22.875,-5.93352 -13.2845,-0.004 -23.8868,4.0134 -36.2585,13.73783 -5.4632,4.29414 -6.9187,5.10335 -8.25,4.5866 -0.8891,-0.3451 -9.6321,-4.52025 -19.429,-9.27811 -11.7566,-5.70963 -17.8125,-9.04205 -17.8125,-9.8019 0,-1.76411 11.3641,-15.49562 17.4529,-21.08872 10.4577,-9.60634 25.1358,-18.10159 37.3676,-21.62728 12.1389,-3.49889 29.3696,-4.46431 41.6031,-2.33098 z M 627.73158,389.8888 c 13.14215,2.62668 27.09275,8.60208 37.66428,16.13257 3.58637,2.55471 10.55217,8.80847 15.47954,13.89724 7.36748,7.60881 9.45273,9.34497 11.73917,9.7739 5.03028,0.94369 8.07141,-0.65695 16.55198,-8.71178 7.56186,-7.18225 10.08363,-8.76098 10.08363,-6.31275 0,0.63138 -0.822,5.6095 -1.82666,11.0625 -3.91543,21.25162 -4.47292,28.79191 -4.55915,61.66454 -0.0672,25.62556 -0.2953,31.90435 -1.36864,37.67683 -4.09868,22.04274 -12.24563,38.20384 -26.33932,52.24925 -9.43933,9.40699 -18.80835,15.87404 -33.78123,23.31781 -20.77078,10.32618 -30.77459,13.0437 -50.25,13.65036 -10.71053,0.33363 -14.18962,0.15089 -21.75,-1.1424 -23.90569,-4.08935 -44.1273,-14.52653 -61.17631,-31.57554 -16.0315,-16.03148 -25.84343,-34.19674 -30.76932,-56.96454 -2.42742,-11.21962 -2.79236,-30.1011 -0.80622,-41.71177 5.96356,-34.86208 26.97952,-64.10134 57.08931,-79.42771 14.34461,-7.30163 31.70175,-12.43857 49.53754,-14.66089 7.5255,-0.93767 27.5137,-0.31023 34.4814,1.08238 z m 477.88152,3.33914 c 36.0133,6.16824 67.4391,29.86249 82.6611,62.3245 7.3041,15.57617 10.191,27.95487 10.7496,46.09258 0.3296,10.69851 0.1451,14.19811 -1.1468,21.75 -5.9631,34.85945 -26.953,64.06547 -57.0893,79.43568 -19.3118,9.84946 -40.7632,14.95663 -63.0375,15.00797 -14.5199,0.0335 -20.5466,-0.77545 -31.5,-4.22814 -16.8002,-5.29565 -28.8076,-12.96888 -42.6252,-27.2391 -7.3675,-7.60881 -9.4528,-9.34497 -11.73917,-9.7739 -5.03033,-0.94369 -8.07143,0.65695 -16.55205,8.71178 -7.5618,7.18225 -10.0836,8.76098 -10.0836,6.31275 0,-0.63138 0.822,-5.6095 1.8267,-11.0625 3.91537,-21.25162 4.47285,-28.79191 4.5591,-61.66454 0.0871,-33.19153 0.4146,-36.86683 4.5603,-51.1727 7.38998,-25.50133 25.61442,-46.08639 53.55392,-60.49088 22.6493,-11.67708 35.7023,-15.23994 56.3629,-15.38453 7.7705,-0.0544 13.4805,0.35002 19.5,1.38103 z"
         id="path2048" /></g></g></svg>
